<?xml version="1.0" standalone="no"?>
<!DOCTYPE svg PUBLIC "-//W3C//DTD SVG 20010904//EN"
 "http://www.w3.org/TR/2001/REC-SVG-20010904/DTD/svg10.dtd">
<svg version="1.0" xmlns="http://www.w3.org/2000/svg"
 width="860.000000pt" height="802.000000pt" viewBox="0 0 860.000000 802.000000"
 preserveAspectRatio="xMidYMid meet">

<g transform="translate(0.000000,802.000000) scale(0.100000,-0.100000)"
fill="#000000" stroke="none">
<path d="M5505 8000 c-152 -14 -265 -31 -375 -57 -113 -26 -417 -125 -521
-168 -327 -138 -717 -373 -1104 -665 -564 -426 -629 -474 -810 -593 -169 -111
-409 -243 -560 -307 -271 -115 -597 -195 -875 -215 -205 -14 -294 -33 -407
-87 -230 -108 -433 -358 -552 -679 -179 -484 -281 -1189 -281 -1940 0 -742
111 -1423 326 -1998 268 -715 689 -1220 1064 -1276 133 -19 345 48 485 153
247 186 456 429 949 1100 83 112 225 291 309 387 80 92 390 402 446 446 24 18
58 47 75 62 48 43 292 216 360 255 34 19 77 44 96 55 95 55 126 71 251 125
119 53 355 130 464 153 94 20 263 49 305 53 25 3 77 8 115 11 39 4 79 9 90 11
24 5 433 4 490 0 22 -2 85 -7 140 -11 191 -12 240 -18 625 -80 194 -30 256
-41 375 -61 283 -49 338 -57 515 -74 251 -23 357 -19 518 21 102 25 122 35
198 101 77 67 99 100 136 207 27 75 31 104 36 221 4 116 1 158 -23 294 -15 88
-47 230 -71 317 -72 257 -84 336 -80 539 4 158 8 189 39 322 20 80 56 197 80
260 25 62 52 136 60 163 8 28 29 82 45 122 27 64 59 172 82 273 5 19 17 70 28
113 52 202 45 465 -18 679 -142 473 -712 999 -1599 1473 -187 100 -364 162
-674 235 -215 50 -561 78 -752 60z"/>
</g>
</svg>
